# This file uses centimeters as units for non-parametric coordinates.

mtllib utility box 001.mtl
g default
v -1.029105 -1.691810 0.250025
v -1.028294 -1.757990 0.250025
v -0.868109 -1.759450 0.500000
v 1.028294 -1.757990 0.250025
v 1.029105 -1.691810 0.250025
v 0.868109 -1.759450 0.500000
v -0.868109 1.849888 0.250025
v -1.029105 1.779803 0.250025
v -0.868109 1.779803 0.500000
v 1.029105 1.779803 0.250025
v 0.868109 1.849888 0.250025
v 0.868109 1.779803 0.500000
v -0.868109 1.779803 -0.500000
v -1.029105 1.779803 -0.250025
v -0.868109 1.849888 -0.250025
v 1.029105 1.779803 -0.250025
v 0.868109 1.779803 -0.500000
v 0.868109 1.849888 -0.250025
v -1.028294 -1.757990 -0.250025
v -1.029105 -1.691810 -0.250025
v -0.868109 -1.759450 -0.500000
v 1.029105 -1.691810 -0.250025
v 1.028294 -1.757990 -0.250025
v 0.868109 -1.759450 -0.500000
vt 0.625936 0.828353
vt 0.625936 0.158380
vt 0.919804 0.158380
vt 0.919804 0.828353
vt 0.947054 0.828353
vt 0.947054 0.171184
vt 0.919804 0.841620
vt 0.625936 0.841620
vt 0.598686 0.828353
vt 0.598686 0.171184
vt 0.946917 0.158657
vt 0.598824 0.158657
vt 0.505719 0.888650
vt 0.371346 0.888650
vt 0.371346 0.019117
vt 0.505719 0.019117
vt 0.505719 0.002541
vt 0.371346 0.002541
vt 0.505719 0.906204
vt 0.371346 0.906204
vt 0.513746 0.017544
vt 0.513746 0.937947
vt 0.352258 0.937947
vt 0.352258 0.017544
vt 0.352258 -0.000001
vt 0.513746 -0.000001
vt 0.352258 0.956528
vt 0.513746 0.956528
vt 0.485000 0.044630
vt 0.485000 0.937686
vt 0.512856 0.937686
vt 0.512856 0.044630
vt 0.515440 0.061697
vt 0.515440 0.937686
vt 0.482417 0.061697
vt 0.482417 0.937686
vt 0.512856 0.955370
vt 0.485000 0.955370
vt 0.482430 0.044999
vn 0.000000 -1.000000 0.000000
vn 0.000000 -1.000000 0.000000
vn 0.000000 -1.000000 0.000000
vn 0.000000 -1.000000 0.000000
vn 0.000000 0.000000 1.000000
vn 0.000000 0.000000 1.000000
vn 0.000000 0.000000 1.000000
vn 0.000000 0.000000 1.000000
vn -1.000000 0.000000 0.000000
vn -1.000000 0.000000 0.000000
vn -1.000000 0.000000 0.000000
vn -1.000000 0.000000 0.000000
vn 1.000000 0.000000 0.000000
vn 1.000000 0.000000 0.000000
vn 1.000000 0.000000 0.000000
vn 1.000000 0.000000 0.000000
vn 0.000000 1.000000 0.000000
vn 0.000000 1.000000 0.000000
vn 0.000000 1.000000 0.000000
vn 0.000000 1.000000 0.000000
vn 0.000000 0.000000 -1.000000
vn 0.000000 0.000000 -1.000000
vn 0.000000 0.000000 -1.000000
vn 0.000000 0.000000 -1.000000
vn -0.999925 -0.012257 0.000000
vn -0.999925 -0.012257 0.000000
vn -0.999925 -0.012257 0.000000
vn -0.999925 -0.012257 0.000000
vn 0.000000 -0.999983 -0.005843
vn 0.000000 -0.999983 -0.005843
vn 0.000000 -0.999983 -0.005843
vn 0.000000 -0.999983 -0.005843
vn -0.840723 -0.000000 0.541466
vn -0.840723 -0.000000 0.541466
vn -0.840723 -0.000000 0.541466
vn -0.840723 -0.000000 0.541466
vn 0.999925 -0.012257 0.000000
vn 0.999925 -0.012257 0.000000
vn 0.999925 -0.012257 0.000000
vn 0.999925 -0.012257 0.000000
vn 0.840723 -0.000000 0.541466
vn 0.840723 -0.000000 0.541466
vn 0.840723 -0.000000 0.541466
vn 0.840723 -0.000000 0.541466
vn -0.399143 0.916889 -0.000000
vn -0.399143 0.916889 -0.000000
vn -0.399143 0.916889 -0.000000
vn -0.399143 0.916889 -0.000000
vn 0.000000 0.962872 0.269960
vn 0.000000 0.962872 0.269960
vn 0.000000 0.962872 0.269960
vn 0.000000 0.962872 0.269960
vn 0.399143 0.916889 -0.000000
vn 0.399143 0.916889 -0.000000
vn 0.399143 0.916889 -0.000000
vn 0.399143 0.916889 -0.000000
vn -0.840723 0.000000 -0.541466
vn -0.840723 0.000000 -0.541466
vn -0.840723 0.000000 -0.541466
vn -0.840723 0.000000 -0.541466
vn 0.000000 0.962872 -0.269960
vn 0.000000 0.962872 -0.269960
vn 0.000000 0.962872 -0.269960
vn 0.000000 0.962872 -0.269960
vn 0.840723 0.000000 -0.541466
vn 0.840723 0.000000 -0.541466
vn 0.840723 0.000000 -0.541466
vn 0.840723 0.000000 -0.541466
vn 0.000000 -0.999983 0.005843
vn 0.000000 -0.999983 0.005843
vn 0.000000 -0.999983 0.005843
vn 0.000000 -0.999983 0.005843
vn -0.841947 -0.010321 0.539461
vn -0.841947 -0.010321 0.539461
vn -0.841947 -0.010321 0.539461
vn 0.841947 -0.010320 0.539462
vn 0.841947 -0.010320 0.539462
vn 0.841947 -0.010320 0.539462
vn -0.386574 0.888016 0.248973
vn -0.386574 0.888016 0.248973
vn -0.386574 0.888016 0.248973
vn 0.386574 0.888016 0.248973
vn 0.386574 0.888016 0.248973
vn 0.386574 0.888016 0.248973
vn -0.386574 0.888016 -0.248972
vn -0.386574 0.888016 -0.248972
vn -0.386574 0.888016 -0.248972
vn 0.386574 0.888016 -0.248972
vn 0.386574 0.888016 -0.248972
vn 0.386574 0.888016 -0.248972
vn -0.841947 -0.010320 -0.539462
vn -0.841947 -0.010320 -0.539462
vn -0.841947 -0.010320 -0.539462
vn 0.841947 -0.010321 -0.539461
vn 0.841947 -0.010321 -0.539461
vn 0.841947 -0.010321 -0.539461
s off
g pCube1
usemtl blinn2SG
f 19//1 23//2 4//3 2//4
usemtl blinn1SG
f 6/29/5 12/30/6 9/31/7 3/32/8
f 8/13/9 14/14/10 20/15/11 1/16/12
f 22/21/13 16/22/14 10/23/15 5/24/16
usemtl blinn2SG
f 11//17 18//18 15//19 7//20
usemtl blinn1SG
f 17/1/21 24/2/22 21/3/23 13/4/24
f 2/17/25 1/16/26 20/15/27 19/18/28
usemtl blinn2SG
f 3//29 2//30 4//31 6//32
usemtl blinn1SG
f 1/33/33 3/32/34 9/31/35 8/34/36
f 5/24/37 4/25/38 23/26/39 22/21/40
f 6/29/41 5/35/42 10/36/43 12/30/44
f 8/13/45 7/19/46 15/20/47 14/14/48
f 7/37/49 9/31/50 12/30/51 11/38/52
f 11/27/53 10/23/54 16/22/55 18/28/56
f 14/5/57 13/4/58 21/3/59 20/6/60
f 13/4/61 15/7/62 18/8/63 17/1/64
f 17/1/65 16/9/66 22/10/67 24/2/68
usemtl blinn2SG
f 19/11/69 21/3/70 24/2/71 23/12/72
usemtl blinn1SG
f 1//73 2//74 3//75
f 4/39/76 5/35/77 6/29/78
f 7/37/79 8/34/80 9/31/81
f 10/36/82 11/38/83 12/30/84
f 13/4/85 14/5/86 15/7/87
f 16/9/88 17/1/89 18/8/90
f 19/11/91 20/6/92 21/3/93
f 22/10/94 23/12/95 24/2/96
g default
v -1.111924 -2.458639 0.649429
v 1.111924 -2.458639 0.649429
v -1.111924 -1.642900 0.649429
v 1.111924 -1.642900 0.649429
v -1.111924 -1.737700 -0.649429
v 1.111924 -1.642900 -0.649429
v -1.111924 -2.458639 -0.649429
v 1.111924 -2.458639 -0.649429
v -0.827344 -1.642900 0.649429
v -0.998772 -1.642900 -0.649429
v -1.111924 -1.695737 -0.074484
v -0.892579 -1.642900 0.155162
v -1.111924 -1.686552 0.051357
vt 0.000000 0.000000
vt 1.000000 0.000000
vt 0.000000 1.000000
vt 1.000000 1.000000
vt 0.000000 2.000000
vt 1.000000 2.000000
vt 0.000000 3.000000
vt 1.000000 3.000000
vt 0.000000 4.000000
vt 1.000000 4.000000
vt 2.000000 0.000000
vt 2.000000 1.000000
vt -1.000000 0.000000
vt -1.000000 1.000000
vt 0.127967 1.000000
vt 0.050881 2.000000
vt -0.557346 1.000000
vt 0.000000 1.557346
vt 0.098633 1.380539
vt -0.460460 1.000000
vt 0.000000 1.460460
vn 0.000000 0.000000 1.000000
vn 0.000000 0.000000 1.000000
vn 0.000000 0.000000 1.000000
vn 0.000000 0.000000 1.000000
vn 0.000000 0.000000 1.000000
vn -0.079070 0.996251 -0.035090
vn -0.079070 0.996251 -0.035090
vn -0.079070 0.996251 -0.035090
vn -0.079070 0.996251 -0.035090
vn 0.000000 0.000000 -1.000000
vn 0.000000 0.000000 -1.000000
vn 0.000000 0.000000 -1.000000
vn 0.000000 0.000000 -1.000000
vn 0.000000 0.000000 -1.000000
vn 0.000000 -1.000000 0.000000
vn 0.000000 -1.000000 0.000000
vn 0.000000 -1.000000 0.000000
vn 0.000000 -1.000000 0.000000
vn 1.000000 0.000000 0.000000
vn 1.000000 0.000000 0.000000
vn 1.000000 0.000000 0.000000
vn 1.000000 0.000000 0.000000
vn -1.000000 0.000000 0.000000
vn -1.000000 0.000000 0.000000
vn -1.000000 0.000000 0.000000
vn -1.000000 0.000000 0.000000
vn -1.000000 0.000000 0.000000
vn -1.000000 0.000000 0.000000
vn 0.000000 1.000000 0.000000
vn 0.000000 1.000000 0.000000
vn 0.000000 1.000000 0.000000
vn 0.000000 1.000000 0.000000
vn 0.000000 1.000000 0.000000
vn -0.641205 0.765334 -0.055860
vn -0.641205 0.765334 -0.055860
vn -0.641205 0.765334 -0.055860
vn -0.253249 0.967207 0.019356
vn -0.253249 0.967207 0.019356
vn -0.253249 0.967207 0.019356
vn -0.253249 0.967207 0.019356
s off
g pCube2
usemtl blinn3SG
f 25/40/97 26/41/98 28/43/99 33/54/100 27/42/101
f 27/42/102 33/54/103 36/58/104 37/60/105
f 29/44/106 34/55/107 30/45/108 32/47/109 31/46/110
f 31/46/111 32/47/112 26/49/113 25/48/114
f 26/41/115 32/50/116 30/51/117 28/43/118
f 31/52/119 25/40/120 27/42/121 37/59/122 35/56/123 29/53/124
f 33/54/125 28/43/126 30/45/127 34/55/128 36/58/129
f 35/57/130 34/55/131 29/44/132
f 37/60/133 36/58/134 34/55/135 35/57/136
